<svg id="visual" viewBox="0 0 1200 500" width="1200" height="500" xmlns="http://www.w3.org/2000/svg" xmlns:xlink="http://www.w3.org/1999/xlink" version="1.1"><rect x="0" y="0" width="1200" height="500" fill="#001220"></rect><path d="M0 155L28.5 154.8C57 154.7 114 154.3 171.2 150C228.3 145.7 285.7 137.3 342.8 142.3C400 147.3 457 165.7 514.2 172.7C571.3 179.7 628.7 175.3 685.8 168.8C743 162.3 800 153.7 857.2 152.2C914.3 150.7 971.7 156.3 1028.8 161.5C1086 166.7 1143 171.3 1171.5 173.7L1200 176L1200 0L1171.5 0C1143 0 1086 0 1028.8 0C971.7 0 914.3 0 857.2 0C800 0 743 0 685.8 0C628.7 0 571.3 0 514.2 0C457 0 400 0 342.8 0C285.7 0 228.3 0 171.2 0C114 0 57 0 28.5 0L0 0Z" fill="#250200"></path><path d="M0 129L28.5 131.2C57 133.3 114 137.7 171.2 139.5C228.3 141.3 285.7 140.7 342.8 133.8C400 127 457 114 514.2 117.8C571.3 121.7 628.7 142.3 685.8 144.7C743 147 800 131 857.2 124C914.3 117 971.7 119 1028.8 124C1086 129 1143 137 1171.5 141L1200 145L1200 0L1171.5 0C1143 0 1086 0 1028.8 0C971.7 0 914.3 0 857.2 0C800 0 743 0 685.8 0C628.7 0 571.3 0 514.2 0C457 0 400 0 342.8 0C285.7 0 228.3 0 171.2 0C114 0 57 0 28.5 0L0 0Z" fill="#430c11"></path><path d="M0 96L28.5 102.3C57 108.7 114 121.3 171.2 119C228.3 116.7 285.7 99.3 342.8 97C400 94.7 457 107.3 514.2 108.8C571.3 110.3 628.7 100.7 685.8 95.3C743 90 800 89 857.2 87C914.3 85 971.7 82 1028.8 79.8C1086 77.7 1143 76.3 1171.5 75.7L1200 75L1200 0L1171.5 0C1143 0 1086 0 1028.8 0C971.7 0 914.3 0 857.2 0C800 0 743 0 685.8 0C628.7 0 571.3 0 514.2 0C457 0 400 0 342.8 0C285.7 0 228.3 0 171.2 0C114 0 57 0 28.5 0L0 0Z" fill="#671219"></path><path d="M0 85L28.5 82.5C57 80 114 75 171.2 68.8C228.3 62.7 285.7 55.3 342.8 59.5C400 63.7 457 79.3 514.2 86.3C571.3 93.3 628.7 91.7 685.8 91.3C743 91 800 92 857.2 88.8C914.3 85.7 971.7 78.3 1028.8 74.3C1086 70.3 1143 69.7 1171.5 69.3L1200 69L1200 0L1171.5 0C1143 0 1086 0 1028.8 0C971.7 0 914.3 0 857.2 0C800 0 743 0 685.8 0C628.7 0 571.3 0 514.2 0C457 0 400 0 342.8 0C285.7 0 228.3 0 171.2 0C114 0 57 0 28.5 0L0 0Z" fill="#8c191f"></path><path d="M0 21L28.5 27C57 33 114 45 171.2 48.5C228.3 52 285.7 47 342.8 44C400 41 457 40 514.2 40.2C571.3 40.3 628.7 41.7 685.8 39.8C743 38 800 33 857.2 30.5C914.3 28 971.7 28 1028.8 26.7C1086 25.3 1143 22.7 1171.5 21.3L1200 20L1200 0L1171.5 0C1143 0 1086 0 1028.8 0C971.7 0 914.3 0 857.2 0C800 0 743 0 685.8 0C628.7 0 571.3 0 514.2 0C457 0 400 0 342.8 0C285.7 0 228.3 0 171.2 0C114 0 57 0 28.5 0L0 0Z" fill="#b22222"></path></svg>